<?xml version="1.0" encoding="us-ascii" standalone="no"?><svg xmlns="http://www.w3.org/2000/svg" xmlns:xlink="http://www.w3.org/1999/xlink" contentStyleType="text/css" height="1013px" preserveAspectRatio="none" style="width:3018px;height:1013px;background:#FFFFFF;" version="1.1" viewBox="0 0 3018 1013" width="3018px" zoomAndPan="magnify"><defs/><g><text fill="#000000" font-family="sans-serif" font-size="14" font-weight="bold" lengthAdjust="spacing" textLength="80" x="1462" y="22.9951">Bookshelf</text><!--class BookImportedEvent--><g id="elem_BookImportedEvent"><rect codeLine="3" fill="#F1F1F1" height="96.8906" id="BookImportedEvent" rx="2.5" ry="2.5" style="stroke:#181818;stroke-width:0.5;" width="179" x="115.5" y="316.2969"/><ellipse cx="130.5" cy="332.2969" fill="#ADD1B2" rx="11" ry="11" style="stroke:#181818;stroke-width:1.0;"/><path d="M132.8438,327.9688 C131.9063,327.5313 131.3125,327.3906 130.4375,327.3906 C127.8125,327.3906 125.8125,329.4688 125.8125,332.1875 L125.8125,333.3125 C125.8125,335.8906 127.9219,337.7813 130.8125,337.7813 C132.0313,337.7813 133.1875,337.4844 133.9375,336.9375 C134.5156,336.5313 134.8438,336.0781 134.8438,335.6875 C134.8438,335.2344 134.4531,334.8438 133.9844,334.8438 C133.7656,334.8438 133.5625,334.9219 133.375,335.1094 C132.9219,335.5938 132.9219,335.5938 132.7344,335.6875 C132.3125,335.9531 131.625,336.0781 130.8594,336.0781 C128.8125,336.0781 127.5156,334.9844 127.5156,333.2813 L127.5156,332.1875 C127.5156,330.4063 128.7656,329.0938 130.5,329.0938 C131.0781,329.0938 131.6875,329.25 132.1563,329.5 C132.6406,329.7813 132.8125,330 132.9063,330.4063 C132.9688,330.8125 133,330.9375 133.1406,331.0625 C133.2813,331.2031 133.5156,331.3125 133.7344,331.3125 C134,331.3125 134.2656,331.1719 134.4375,330.9531 C134.5469,330.7969 134.5781,330.6094 134.5781,330.1875 L134.5781,328.7656 C134.5781,328.3281 134.5625,328.2031 134.4688,328.0469 C134.3125,327.7813 134.0313,327.6406 133.7344,327.6406 C133.4375,327.6406 133.2344,327.7344 133.0156,328.0469 L132.8438,327.9688 Z " fill="#000000"/><text fill="#000000" font-family="sans-serif" font-size="14" lengthAdjust="spacing" textLength="147" x="144.5" y="337.1436">BookImportedEvent</text><line style="stroke:#181818;stroke-width:0.5;" x1="116.5" x2="293.5" y1="348.2969" y2="348.2969"/><rect fill="none" height="6" style="stroke:#C82930;stroke-width:1.0;" width="6" x="123.5" y="358.9453"/><text fill="#000000" font-family="sans-serif" font-size="14" lengthAdjust="spacing" textLength="70" x="135.5" y="365.292">user: User</text><rect fill="none" height="6" style="stroke:#C82930;stroke-width:1.0;" width="6" x="123.5" y="375.2422"/><text fill="#000000" font-family="sans-serif" font-size="14" lengthAdjust="spacing" textLength="109" x="135.5" y="381.5889">importFile: File</text><line style="stroke:#181818;stroke-width:0.5;" x1="116.5" x2="293.5" y1="388.8906" y2="388.8906"/><ellipse cx="126.5" cy="402.5391" fill="#84BE84" rx="3" ry="3" style="stroke:#038048;stroke-width:1.0;"/><text fill="#000000" font-family="sans-serif" font-size="14" lengthAdjust="spacing" textLength="123" x="135.5" y="405.8857">toString(): String</text></g><!--class BookImportAsyncListener--><g id="elem_BookImportAsyncListener"><rect codeLine="10" fill="#F1F1F1" height="80.5938" id="BookImportAsyncListener" rx="2.5" ry="2.5" style="stroke:#181818;stroke-width:0.5;" width="396" x="7" y="76.7969"/><ellipse cx="106.75" cy="92.7969" fill="#ADD1B2" rx="11" ry="11" style="stroke:#181818;stroke-width:1.0;"/><path d="M109.0938,88.4688 C108.1563,88.0313 107.5625,87.8906 106.6875,87.8906 C104.0625,87.8906 102.0625,89.9688 102.0625,92.6875 L102.0625,93.8125 C102.0625,96.3906 104.1719,98.2813 107.0625,98.2813 C108.2813,98.2813 109.4375,97.9844 110.1875,97.4375 C110.7656,97.0313 111.0938,96.5781 111.0938,96.1875 C111.0938,95.7344 110.7031,95.3438 110.2344,95.3438 C110.0156,95.3438 109.8125,95.4219 109.625,95.6094 C109.1719,96.0938 109.1719,96.0938 108.9844,96.1875 C108.5625,96.4531 107.875,96.5781 107.1094,96.5781 C105.0625,96.5781 103.7656,95.4844 103.7656,93.7813 L103.7656,92.6875 C103.7656,90.9063 105.0156,89.5938 106.75,89.5938 C107.3281,89.5938 107.9375,89.75 108.4063,90 C108.8906,90.2813 109.0625,90.5 109.1563,90.9063 C109.2188,91.3125 109.25,91.4375 109.3906,91.5625 C109.5313,91.7031 109.7656,91.8125 109.9844,91.8125 C110.25,91.8125 110.5156,91.6719 110.6875,91.4531 C110.7969,91.2969 110.8281,91.1094 110.8281,90.6875 L110.8281,89.2656 C110.8281,88.8281 110.8125,88.7031 110.7188,88.5469 C110.5625,88.2813 110.2813,88.1406 109.9844,88.1406 C109.6875,88.1406 109.4844,88.2344 109.2656,88.5469 L109.0938,88.4688 Z " fill="#000000"/><text fill="#000000" font-family="sans-serif" font-size="14" lengthAdjust="spacing" textLength="188" x="127.25" y="97.6436">BookImportAsyncListener</text><line style="stroke:#181818;stroke-width:0.5;" x1="8" x2="402" y1="108.7969" y2="108.7969"/><rect fill="none" height="6" style="stroke:#C82930;stroke-width:1.0;" width="6" x="15" y="119.4453"/><text fill="#000000" font-family="sans-serif" font-size="14" lengthAdjust="spacing" textLength="81" x="27" y="125.792">log: Logger</text><line style="stroke:#181818;stroke-width:0.5;" x1="8" x2="402" y1="133.0938" y2="133.0938"/><ellipse cx="18" cy="146.7422" fill="#84BE84" rx="3" ry="3" style="stroke:#038048;stroke-width:1.0;"/><text fill="#000000" font-family="sans-serif" font-size="14" lengthAdjust="spacing" textLength="370" x="27" y="150.0889">on(bookImportedEvent: BookImportedEvent): void</text></g><!--class Tag--><g id="elem_Tag"><rect codeLine="16" fill="#F1F1F1" height="162.0781" id="Tag" rx="2.5" ry="2.5" style="stroke:#181818;stroke-width:0.5;" width="152" x="2192" y="539.7969"/><ellipse cx="2250.75" cy="555.7969" fill="#ADD1B2" rx="11" ry="11" style="stroke:#181818;stroke-width:1.0;"/><path d="M2253.0938,551.4688 C2252.1563,551.0313 2251.5625,550.8906 2250.6875,550.8906 C2248.0625,550.8906 2246.0625,552.9688 2246.0625,555.6875 L2246.0625,556.8125 C2246.0625,559.3906 2248.1719,561.2813 2251.0625,561.2813 C2252.2813,561.2813 2253.4375,560.9844 2254.1875,560.4375 C2254.7656,560.0313 2255.0938,559.5781 2255.0938,559.1875 C2255.0938,558.7344 2254.7031,558.3438 2254.2344,558.3438 C2254.0156,558.3438 2253.8125,558.4219 2253.625,558.6094 C2253.1719,559.0938 2253.1719,559.0938 2252.9844,559.1875 C2252.5625,559.4531 2251.875,559.5781 2251.1094,559.5781 C2249.0625,559.5781 2247.7656,558.4844 2247.7656,556.7813 L2247.7656,555.6875 C2247.7656,553.9063 2249.0156,552.5938 2250.75,552.5938 C2251.3281,552.5938 2251.9375,552.75 2252.4063,553 C2252.8906,553.2813 2253.0625,553.5 2253.1563,553.9063 C2253.2188,554.3125 2253.25,554.4375 2253.3906,554.5625 C2253.5313,554.7031 2253.7656,554.8125 2253.9844,554.8125 C2254.25,554.8125 2254.5156,554.6719 2254.6875,554.4531 C2254.7969,554.2969 2254.8281,554.1094 2254.8281,553.6875 L2254.8281,552.2656 C2254.8281,551.8281 2254.8125,551.7031 2254.7188,551.5469 C2254.5625,551.2813 2254.2813,551.1406 2253.9844,551.1406 C2253.6875,551.1406 2253.4844,551.2344 2253.2656,551.5469 L2253.0938,551.4688 Z " fill="#000000"/><text fill="#000000" font-family="sans-serif" font-size="14" lengthAdjust="spacing" textLength="26" x="2271.25" y="560.6436">Tag</text><line style="stroke:#181818;stroke-width:0.5;" x1="2193" x2="2343" y1="571.7969" y2="571.7969"/><rect fill="none" height="6" style="stroke:#C82930;stroke-width:1.0;" width="6" x="2200" y="582.4453"/><text fill="#000000" font-family="sans-serif" font-size="14" lengthAdjust="spacing" textLength="66" x="2212" y="588.792">id: String</text><rect fill="none" height="6" style="stroke:#C82930;stroke-width:1.0;" width="6" x="2200" y="598.7422"/><text fill="#000000" font-family="sans-serif" font-size="14" lengthAdjust="spacing" textLength="96" x="2212" y="605.0889">userId: String</text><rect fill="none" height="6" style="stroke:#C82930;stroke-width:1.0;" width="6" x="2200" y="615.0391"/><text fill="#000000" font-family="sans-serif" font-size="14" lengthAdjust="spacing" textLength="93" x="2212" y="621.3857">name: String</text><rect fill="none" height="6" style="stroke:#C82930;stroke-width:1.0;" width="6" x="2200" y="631.3359"/><text fill="#000000" font-family="sans-serif" font-size="14" lengthAdjust="spacing" textLength="126" x="2212" y="637.6826">createDate: Date</text><rect fill="none" height="6" style="stroke:#C82930;stroke-width:1.0;" width="6" x="2200" y="647.6328"/><text fill="#000000" font-family="sans-serif" font-size="14" lengthAdjust="spacing" textLength="89" x="2212" y="653.9795">color: String</text><rect fill="none" height="6" style="stroke:#C82930;stroke-width:1.0;" width="6" x="2200" y="663.9297"/><text fill="#000000" font-family="sans-serif" font-size="14" lengthAdjust="spacing" textLength="126" x="2212" y="670.2764">deleteDate: Date</text><line style="stroke:#181818;stroke-width:0.5;" x1="2193" x2="2343" y1="677.5781" y2="677.5781"/><ellipse cx="2203" cy="691.2266" fill="#84BE84" rx="3" ry="3" style="stroke:#038048;stroke-width:1.0;"/><text fill="#000000" font-family="sans-serif" font-size="14" lengthAdjust="spacing" textLength="123" x="2212" y="694.5732">toString(): String</text></g><!--class TagDao--><g id="elem_TagDao"><rect codeLine="27" fill="#F1F1F1" height="194.6719" id="TagDao" rx="2.5" ry="2.5" style="stroke:#181818;stroke-width:0.5;" width="481" x="2067.5" y="267.2969"/><ellipse cx="2276.75" cy="283.2969" fill="#ADD1B2" rx="11" ry="11" style="stroke:#181818;stroke-width:1.0;"/><path d="M2279.0938,278.9688 C2278.1563,278.5313 2277.5625,278.3906 2276.6875,278.3906 C2274.0625,278.3906 2272.0625,280.4688 2272.0625,283.1875 L2272.0625,284.3125 C2272.0625,286.8906 2274.1719,288.7813 2277.0625,288.7813 C2278.2813,288.7813 2279.4375,288.4844 2280.1875,287.9375 C2280.7656,287.5313 2281.0938,287.0781 2281.0938,286.6875 C2281.0938,286.2344 2280.7031,285.8438 2280.2344,285.8438 C2280.0156,285.8438 2279.8125,285.9219 2279.625,286.1094 C2279.1719,286.5938 2279.1719,286.5938 2278.9844,286.6875 C2278.5625,286.9531 2277.875,287.0781 2277.1094,287.0781 C2275.0625,287.0781 2273.7656,285.9844 2273.7656,284.2813 L2273.7656,283.1875 C2273.7656,281.4063 2275.0156,280.0938 2276.75,280.0938 C2277.3281,280.0938 2277.9375,280.25 2278.4063,280.5 C2278.8906,280.7813 2279.0625,281 2279.1563,281.4063 C2279.2188,281.8125 2279.25,281.9375 2279.3906,282.0625 C2279.5313,282.2031 2279.7656,282.3125 2279.9844,282.3125 C2280.25,282.3125 2280.5156,282.1719 2280.6875,281.9531 C2280.7969,281.7969 2280.8281,281.6094 2280.8281,281.1875 L2280.8281,279.7656 C2280.8281,279.3281 2280.8125,279.2031 2280.7188,279.0469 C2280.5625,278.7813 2280.2813,278.6406 2279.9844,278.6406 C2279.6875,278.6406 2279.4844,278.7344 2279.2656,279.0469 L2279.0938,278.9688 Z " fill="#000000"/><text fill="#000000" font-family="sans-serif" font-size="14" lengthAdjust="spacing" textLength="54" x="2297.25" y="288.1436">TagDao</text><line style="stroke:#181818;stroke-width:0.5;" x1="2068.5" x2="2547.5" y1="299.2969" y2="299.2969"/><line style="stroke:#181818;stroke-width:0.5;" x1="2068.5" x2="2547.5" y1="307.2969" y2="307.2969"/><ellipse cx="2078.5" cy="320.9453" fill="#84BE84" rx="3" ry="3" style="stroke:#038048;stroke-width:1.0;"/><text fill="#000000" font-family="sans-serif" font-size="14" lengthAdjust="spacing" textLength="167" x="2087.5" y="324.292">getById(id: String): Tag</text><ellipse cx="2078.5" cy="337.2422" fill="#84BE84" rx="3" ry="3" style="stroke:#038048;stroke-width:1.0;"/><text fill="#000000" font-family="sans-serif" font-size="14" lengthAdjust="spacing" textLength="276" x="2087.5" y="340.5889">getByUserId(userId: String): List&lt;Tag&gt;</text><ellipse cx="2078.5" cy="353.5391" fill="#84BE84" rx="3" ry="3" style="stroke:#038048;stroke-width:1.0;"/><text fill="#000000" font-family="sans-serif" font-size="14" lengthAdjust="spacing" textLength="455" x="2087.5" y="356.8857">updateTagList(userBookId: String, tagIdSet: Set&lt;String&gt;): void</text><ellipse cx="2078.5" cy="369.8359" fill="#84BE84" rx="3" ry="3" style="stroke:#038048;stroke-width:1.0;"/><text fill="#000000" font-family="sans-serif" font-size="14" lengthAdjust="spacing" textLength="377" x="2087.5" y="373.1826">getByUserBookId(userBookId: String): List&lt;TagDto&gt;</text><ellipse cx="2078.5" cy="386.1328" fill="#84BE84" rx="3" ry="3" style="stroke:#038048;stroke-width:1.0;"/><text fill="#000000" font-family="sans-serif" font-size="14" lengthAdjust="spacing" textLength="169" x="2087.5" y="389.4795">create(tag: Tag): String</text><ellipse cx="2078.5" cy="402.4297" fill="#84BE84" rx="3" ry="3" style="stroke:#038048;stroke-width:1.0;"/><text fill="#000000" font-family="sans-serif" font-size="14" lengthAdjust="spacing" textLength="326" x="2087.5" y="405.7764">getByName(userId: String, name: String): Tag</text><ellipse cx="2078.5" cy="418.7266" fill="#84BE84" rx="3" ry="3" style="stroke:#038048;stroke-width:1.0;"/><text fill="#000000" font-family="sans-serif" font-size="14" lengthAdjust="spacing" textLength="321" x="2087.5" y="422.0732">getByTagId(userId: String, tagId: String): Tag</text><ellipse cx="2078.5" cy="435.0234" fill="#84BE84" rx="3" ry="3" style="stroke:#038048;stroke-width:1.0;"/><text fill="#000000" font-family="sans-serif" font-size="14" lengthAdjust="spacing" textLength="186" x="2087.5" y="438.3701">delete(tagId: String): void</text><ellipse cx="2078.5" cy="451.3203" fill="#84BE84" rx="3" ry="3" style="stroke:#038048;stroke-width:1.0;"/><text fill="#000000" font-family="sans-serif" font-size="14" lengthAdjust="spacing" textLength="377" x="2087.5" y="454.667">findByName(userId: String, name: String): List&lt;Tag&gt;</text></g><!--class BaseResource--><g id="elem_BaseResource"><rect codeLine="39" fill="#F1F1F1" height="145.7813" id="BaseResource" rx="2.5" ry="2.5" style="stroke:#181818;stroke-width:0.5;" width="424" x="2584" y="291.7969"/><ellipse cx="2740.75" cy="307.7969" fill="#A9DCDF" rx="11" ry="11" style="stroke:#181818;stroke-width:1.0;"/><path d="M2742.8281,309.6094 L2743.2188,310.5938 L2742.8281,310.5938 C2742.375,310.5938 2742.2656,310.6094 2742.1094,310.7188 C2741.8594,310.875 2741.7031,311.1563 2741.7031,311.4531 C2741.7031,311.7188 2741.8438,311.9688 2742.0625,312.125 C2742.2031,312.25 2742.4063,312.2969 2742.8281,312.2969 L2745.1875,312.2969 C2745.5469,312.2969 2745.7656,312.2656 2745.9063,312.1719 C2746.1563,312.0313 2746.3125,311.7344 2746.3125,311.4531 C2746.3125,311.1719 2746.1719,310.9219 2745.9531,310.7656 C2745.7813,310.625 2745.625,310.5938 2745.1563,310.5938 L2741.7656,302.3906 L2738.0938,302.3906 C2737.6406,302.3906 2737.5156,302.4063 2737.3594,302.5 C2737.1094,302.6719 2736.9531,302.9531 2736.9531,303.2344 C2736.9531,303.5156 2737.0938,303.7656 2737.3125,303.9375 C2737.4844,304.0469 2737.6563,304.0781 2738.0938,304.0781 L2739.1719,304.0781 L2736.5313,310.5938 C2736.1094,310.5938 2735.9531,310.6094 2735.7969,310.7188 C2735.5469,310.875 2735.3906,311.1563 2735.3906,311.4531 C2735.3906,312.0156 2735.7656,312.2969 2736.5156,312.2969 L2738.7813,312.2969 C2739.1406,312.2969 2739.3594,312.2656 2739.4844,312.1719 C2739.75,312.0313 2739.8906,311.7344 2739.8906,311.4531 C2739.8906,311.1719 2739.7656,310.9219 2739.5469,310.75 C2739.375,310.625 2739.2344,310.5938 2738.7813,310.5938 L2738.3906,310.5938 L2738.7813,309.6094 L2742.8281,309.6094 Z M2742.125,307.9063 L2739.4531,307.9063 L2740.7969,304.6406 L2742.125,307.9063 Z " fill="#000000"/><text fill="#000000" font-family="sans-serif" font-size="14" font-style="italic" lengthAdjust="spacing" textLength="102" x="2761.25" y="312.6436">BaseResource</text><line style="stroke:#181818;stroke-width:0.5;" x1="2585" x2="3007" y1="323.7969" y2="323.7969"/><polygon fill="none" points="2595,332.4453,2599,336.4453,2595,340.4453,2591,336.4453" style="stroke:#B38D22;stroke-width:1.0;"/><text fill="#000000" font-family="sans-serif" font-size="14" lengthAdjust="spacing" textLength="209" x="2604" y="340.792">request: HttpServletRequest</text><polygon fill="none" points="2595,348.7422,2599,352.7422,2595,356.7422,2591,352.7422" style="stroke:#B38D22;stroke-width:1.0;"/><text fill="#000000" font-family="sans-serif" font-size="14" lengthAdjust="spacing" textLength="108" x="2604" y="357.0889">appKey: String</text><polygon fill="none" points="2595,365.0391,2599,369.0391,2595,373.0391,2591,369.0391" style="stroke:#B38D22;stroke-width:1.0;"/><text fill="#000000" font-family="sans-serif" font-size="14" lengthAdjust="spacing" textLength="138" x="2604" y="373.3857">principal: IPrincipal</text><line style="stroke:#181818;stroke-width:0.5;" x1="2585" x2="3007" y1="380.6875" y2="380.6875"/><polygon fill="#FFFF44" points="2595,389.3359,2599,393.3359,2595,397.3359,2591,393.3359" style="stroke:#B38D22;stroke-width:1.0;"/><text fill="#000000" font-family="sans-serif" font-size="14" lengthAdjust="spacing" textLength="170" x="2604" y="397.6826">authenticate(): boolean</text><polygon fill="#FFFF44" points="2595,405.6328,2599,409.6328,2595,413.6328,2591,409.6328" style="stroke:#B38D22;stroke-width:1.0;"/><text fill="#000000" font-family="sans-serif" font-size="14" lengthAdjust="spacing" textLength="389" x="2604" y="413.9795">checkBaseFunction(baseFunction: BaseFunction): void</text><polygon fill="#FFFF44" points="2595,421.9297,2599,425.9297,2595,429.9297,2591,425.9297" style="stroke:#B38D22;stroke-width:1.0;"/><text fill="#000000" font-family="sans-serif" font-size="14" lengthAdjust="spacing" textLength="398" x="2604" y="430.2764">hasBaseFunction(baseFunction: BaseFunction): boolean</text></g><!--class TagResource--><g id="elem_TagResource"><rect codeLine="49" fill="#F1F1F1" height="113.1875" id="TagResource" rx="2.5" ry="2.5" style="stroke:#181818;stroke-width:0.5;" width="430" x="2581" y="60.7969"/><ellipse cx="2745.75" cy="76.7969" fill="#ADD1B2" rx="11" ry="11" style="stroke:#181818;stroke-width:1.0;"/><path d="M2748.0938,72.4688 C2747.1563,72.0313 2746.5625,71.8906 2745.6875,71.8906 C2743.0625,71.8906 2741.0625,73.9688 2741.0625,76.6875 L2741.0625,77.8125 C2741.0625,80.3906 2743.1719,82.2813 2746.0625,82.2813 C2747.2813,82.2813 2748.4375,81.9844 2749.1875,81.4375 C2749.7656,81.0313 2750.0938,80.5781 2750.0938,80.1875 C2750.0938,79.7344 2749.7031,79.3438 2749.2344,79.3438 C2749.0156,79.3438 2748.8125,79.4219 2748.625,79.6094 C2748.1719,80.0938 2748.1719,80.0938 2747.9844,80.1875 C2747.5625,80.4531 2746.875,80.5781 2746.1094,80.5781 C2744.0625,80.5781 2742.7656,79.4844 2742.7656,77.7813 L2742.7656,76.6875 C2742.7656,74.9063 2744.0156,73.5938 2745.75,73.5938 C2746.3281,73.5938 2746.9375,73.75 2747.4063,74 C2747.8906,74.2813 2748.0625,74.5 2748.1563,74.9063 C2748.2188,75.3125 2748.25,75.4375 2748.3906,75.5625 C2748.5313,75.7031 2748.7656,75.8125 2748.9844,75.8125 C2749.25,75.8125 2749.5156,75.6719 2749.6875,75.4531 C2749.7969,75.2969 2749.8281,75.1094 2749.8281,74.6875 L2749.8281,73.2656 C2749.8281,72.8281 2749.8125,72.7031 2749.7188,72.5469 C2749.5625,72.2813 2749.2813,72.1406 2748.9844,72.1406 C2748.6875,72.1406 2748.4844,72.2344 2748.2656,72.5469 L2748.0938,72.4688 Z " fill="#000000"/><text fill="#000000" font-family="sans-serif" font-size="14" lengthAdjust="spacing" textLength="92" x="2766.25" y="81.6436">TagResource</text><line style="stroke:#181818;stroke-width:0.5;" x1="2582" x2="3010" y1="92.7969" y2="92.7969"/><line style="stroke:#181818;stroke-width:0.5;" x1="2582" x2="3010" y1="100.7969" y2="100.7969"/><ellipse cx="2592" cy="114.4453" fill="#84BE84" rx="3" ry="3" style="stroke:#038048;stroke-width:1.0;"/><text fill="#000000" font-family="sans-serif" font-size="14" lengthAdjust="spacing" textLength="111" x="2601" y="117.792">list(): Response</text><ellipse cx="2592" cy="130.7422" fill="#84BE84" rx="3" ry="3" style="stroke:#038048;stroke-width:1.0;"/><text fill="#000000" font-family="sans-serif" font-size="14" lengthAdjust="spacing" textLength="305" x="2601" y="134.0889">add(name: String, color: String): Response</text><ellipse cx="2592" cy="147.0391" fill="#84BE84" rx="3" ry="3" style="stroke:#038048;stroke-width:1.0;"/><text fill="#000000" font-family="sans-serif" font-size="14" lengthAdjust="spacing" textLength="404" x="2601" y="150.3857">update(id: String, name: String, color: String): Response</text><ellipse cx="2592" cy="163.3359" fill="#84BE84" rx="3" ry="3" style="stroke:#038048;stroke-width:1.0;"/><text fill="#000000" font-family="sans-serif" font-size="14" lengthAdjust="spacing" textLength="226" x="2601" y="166.6826">delete(tagId: String): Response</text></g><!--class TagDto--><g id="elem_TagDto"><rect codeLine="56" fill="#F1F1F1" height="96.8906" id="TagDto" rx="2.5" ry="2.5" style="stroke:#181818;stroke-width:0.5;" width="119" x="2031.5" y="572.2969"/><ellipse cx="2061.8" cy="588.2969" fill="#ADD1B2" rx="11" ry="11" style="stroke:#181818;stroke-width:1.0;"/><path d="M2064.1438,583.9688 C2063.2063,583.5313 2062.6125,583.3906 2061.7375,583.3906 C2059.1125,583.3906 2057.1125,585.4688 2057.1125,588.1875 L2057.1125,589.3125 C2057.1125,591.8906 2059.2219,593.7813 2062.1125,593.7813 C2063.3313,593.7813 2064.4875,593.4844 2065.2375,592.9375 C2065.8156,592.5313 2066.1438,592.0781 2066.1438,591.6875 C2066.1438,591.2344 2065.7531,590.8438 2065.2844,590.8438 C2065.0656,590.8438 2064.8625,590.9219 2064.675,591.1094 C2064.2219,591.5938 2064.2219,591.5938 2064.0344,591.6875 C2063.6125,591.9531 2062.925,592.0781 2062.1594,592.0781 C2060.1125,592.0781 2058.8156,590.9844 2058.8156,589.2813 L2058.8156,588.1875 C2058.8156,586.4063 2060.0656,585.0938 2061.8,585.0938 C2062.3781,585.0938 2062.9875,585.25 2063.4563,585.5 C2063.9406,585.7813 2064.1125,586 2064.2063,586.4063 C2064.2688,586.8125 2064.3,586.9375 2064.4406,587.0625 C2064.5813,587.2031 2064.8156,587.3125 2065.0344,587.3125 C2065.3,587.3125 2065.5656,587.1719 2065.7375,586.9531 C2065.8469,586.7969 2065.8781,586.6094 2065.8781,586.1875 L2065.8781,584.7656 C2065.8781,584.3281 2065.8625,584.2031 2065.7688,584.0469 C2065.6125,583.7813 2065.3313,583.6406 2065.0344,583.6406 C2064.7375,583.6406 2064.5344,583.7344 2064.3156,584.0469 L2064.1438,583.9688 Z " fill="#000000"/><text fill="#000000" font-family="sans-serif" font-size="14" lengthAdjust="spacing" textLength="53" x="2079.2" y="593.1436">TagDto</text><line style="stroke:#181818;stroke-width:0.5;" x1="2032.5" x2="2149.5" y1="604.2969" y2="604.2969"/><rect fill="none" height="6" style="stroke:#C82930;stroke-width:1.0;" width="6" x="2039.5" y="614.9453"/><text fill="#000000" font-family="sans-serif" font-size="14" lengthAdjust="spacing" textLength="66" x="2051.5" y="621.292">id: String</text><rect fill="none" height="6" style="stroke:#C82930;stroke-width:1.0;" width="6" x="2039.5" y="631.2422"/><text fill="#000000" font-family="sans-serif" font-size="14" lengthAdjust="spacing" textLength="93" x="2051.5" y="637.5889">name: String</text><rect fill="none" height="6" style="stroke:#C82930;stroke-width:1.0;" width="6" x="2039.5" y="647.5391"/><text fill="#000000" font-family="sans-serif" font-size="14" lengthAdjust="spacing" textLength="89" x="2051.5" y="653.8857">color: String</text><line style="stroke:#181818;stroke-width:0.5;" x1="2032.5" x2="2149.5" y1="661.1875" y2="661.1875"/></g><!--class UserBook--><g id="elem_UserBook"><rect codeLine="63" fill="#F1F1F1" height="194.6719" id="UserBook" rx="2.5" ry="2.5" style="stroke:#181818;stroke-width:0.5;" width="229" x="401.5" y="523.2969"/><ellipse cx="477.75" cy="539.2969" fill="#ADD1B2" rx="11" ry="11" style="stroke:#181818;stroke-width:1.0;"/><path d="M480.0938,534.9688 C479.1563,534.5313 478.5625,534.3906 477.6875,534.3906 C475.0625,534.3906 473.0625,536.4688 473.0625,539.1875 L473.0625,540.3125 C473.0625,542.8906 475.1719,544.7813 478.0625,544.7813 C479.2813,544.7813 480.4375,544.4844 481.1875,543.9375 C481.7656,543.5313 482.0938,543.0781 482.0938,542.6875 C482.0938,542.2344 481.7031,541.8438 481.2344,541.8438 C481.0156,541.8438 480.8125,541.9219 480.625,542.1094 C480.1719,542.5938 480.1719,542.5938 479.9844,542.6875 C479.5625,542.9531 478.875,543.0781 478.1094,543.0781 C476.0625,543.0781 474.7656,541.9844 474.7656,540.2813 L474.7656,539.1875 C474.7656,537.4063 476.0156,536.0938 477.75,536.0938 C478.3281,536.0938 478.9375,536.25 479.4063,536.5 C479.8906,536.7813 480.0625,537 480.1563,537.4063 C480.2188,537.8125 480.25,537.9375 480.3906,538.0625 C480.5313,538.2031 480.7656,538.3125 480.9844,538.3125 C481.25,538.3125 481.5156,538.1719 481.6875,537.9531 C481.7969,537.7969 481.8281,537.6094 481.8281,537.1875 L481.8281,535.7656 C481.8281,535.3281 481.8125,535.2031 481.7188,535.0469 C481.5625,534.7813 481.2813,534.6406 480.9844,534.6406 C480.6875,534.6406 480.4844,534.7344 480.2656,535.0469 L480.0938,534.9688 Z " fill="#000000"/><text fill="#000000" font-family="sans-serif" font-size="14" lengthAdjust="spacing" textLength="68" x="498.25" y="544.1436">UserBook</text><line style="stroke:#181818;stroke-width:0.5;" x1="402.5" x2="629.5" y1="555.2969" y2="555.2969"/><rect fill="none" height="6" style="stroke:#C82930;stroke-width:1.0;" width="6" x="409.5" y="565.9453"/><text fill="#000000" font-family="sans-serif" font-size="14" lengthAdjust="spacing" textLength="66" x="421.5" y="572.292">id: String</text><rect fill="none" height="6" style="stroke:#C82930;stroke-width:1.0;" width="6" x="409.5" y="582.2422"/><text fill="#000000" font-family="sans-serif" font-size="14" lengthAdjust="spacing" textLength="96" x="421.5" y="588.5889">userId: String</text><rect fill="none" height="6" style="stroke:#C82930;stroke-width:1.0;" width="6" x="409.5" y="598.5391"/><text fill="#000000" font-family="sans-serif" font-size="14" lengthAdjust="spacing" textLength="103" x="421.5" y="604.8857">bookId: String</text><rect fill="none" height="6" style="stroke:#C82930;stroke-width:1.0;" width="6" x="409.5" y="614.8359"/><text fill="#000000" font-family="sans-serif" font-size="14" lengthAdjust="spacing" textLength="126" x="421.5" y="621.1826">createDate: Date</text><rect fill="none" height="6" style="stroke:#C82930;stroke-width:1.0;" width="6" x="409.5" y="631.1328"/><text fill="#000000" font-family="sans-serif" font-size="14" lengthAdjust="spacing" textLength="126" x="421.5" y="637.4795">deleteDate: Date</text><rect fill="none" height="6" style="stroke:#C82930;stroke-width:1.0;" width="6" x="409.5" y="647.4297"/><text fill="#000000" font-family="sans-serif" font-size="14" lengthAdjust="spacing" textLength="111" x="421.5" y="653.7764">readDate: Date</text><line style="stroke:#181818;stroke-width:0.5;" x1="402.5" x2="629.5" y1="661.0781" y2="661.0781"/><ellipse cx="412.5" cy="674.7266" fill="#84BE84" rx="3" ry="3" style="stroke:#038048;stroke-width:1.0;"/><text fill="#000000" font-family="sans-serif" font-size="14" lengthAdjust="spacing" textLength="109" x="421.5" y="678.0732">hashCode(): int</text><ellipse cx="412.5" cy="691.0234" fill="#84BE84" rx="3" ry="3" style="stroke:#038048;stroke-width:1.0;"/><text fill="#000000" font-family="sans-serif" font-size="14" lengthAdjust="spacing" textLength="203" x="421.5" y="694.3701">equals(obj: Object): boolean</text><ellipse cx="412.5" cy="707.3203" fill="#84BE84" rx="3" ry="3" style="stroke:#038048;stroke-width:1.0;"/><text fill="#000000" font-family="sans-serif" font-size="14" lengthAdjust="spacing" textLength="123" x="421.5" y="710.667">toString(): String</text></g><!--class UserBookDao--><g id="elem_UserBookDao"><rect codeLine="77" fill="#F1F1F1" height="145.7813" id="UserBookDao" rx="2.5" ry="2.5" style="stroke:#181818;stroke-width:0.5;" width="874" x="564" y="291.7969"/><ellipse cx="948.75" cy="307.7969" fill="#ADD1B2" rx="11" ry="11" style="stroke:#181818;stroke-width:1.0;"/><path d="M951.0938,303.4688 C950.1563,303.0313 949.5625,302.8906 948.6875,302.8906 C946.0625,302.8906 944.0625,304.9688 944.0625,307.6875 L944.0625,308.8125 C944.0625,311.3906 946.1719,313.2813 949.0625,313.2813 C950.2813,313.2813 951.4375,312.9844 952.1875,312.4375 C952.7656,312.0313 953.0938,311.5781 953.0938,311.1875 C953.0938,310.7344 952.7031,310.3438 952.2344,310.3438 C952.0156,310.3438 951.8125,310.4219 951.625,310.6094 C951.1719,311.0938 951.1719,311.0938 950.9844,311.1875 C950.5625,311.4531 949.875,311.5781 949.1094,311.5781 C947.0625,311.5781 945.7656,310.4844 945.7656,308.7813 L945.7656,307.6875 C945.7656,305.9063 947.0156,304.5938 948.75,304.5938 C949.3281,304.5938 949.9375,304.75 950.4063,305 C950.8906,305.2813 951.0625,305.5 951.1563,305.9063 C951.2188,306.3125 951.25,306.4375 951.3906,306.5625 C951.5313,306.7031 951.7656,306.8125 951.9844,306.8125 C952.25,306.8125 952.5156,306.6719 952.6875,306.4531 C952.7969,306.2969 952.8281,306.1094 952.8281,305.6875 L952.8281,304.2656 C952.8281,303.8281 952.8125,303.7031 952.7188,303.5469 C952.5625,303.2813 952.2813,303.1406 951.9844,303.1406 C951.6875,303.1406 951.4844,303.2344 951.2656,303.5469 L951.0938,303.4688 Z " fill="#000000"/><text fill="#000000" font-family="sans-serif" font-size="14" lengthAdjust="spacing" textLength="96" x="969.25" y="312.6436">UserBookDao</text><line style="stroke:#181818;stroke-width:0.5;" x1="565" x2="1437" y1="323.7969" y2="323.7969"/><line style="stroke:#181818;stroke-width:0.5;" x1="565" x2="1437" y1="331.7969" y2="331.7969"/><ellipse cx="575" cy="345.4453" fill="#84BE84" rx="3" ry="3" style="stroke:#038048;stroke-width:1.0;"/><text fill="#000000" font-family="sans-serif" font-size="14" lengthAdjust="spacing" textLength="254" x="584" y="348.792">create(userBook: UserBook): String</text><ellipse cx="575" cy="361.7422" fill="#84BE84" rx="3" ry="3" style="stroke:#038048;stroke-width:1.0;"/><text fill="#000000" font-family="sans-serif" font-size="14" lengthAdjust="spacing" textLength="162" x="584" y="365.0889">delete(id: String): void</text><ellipse cx="575" cy="378.0391" fill="#84BE84" rx="3" ry="3" style="stroke:#038048;stroke-width:1.0;"/><text fill="#000000" font-family="sans-serif" font-size="14" lengthAdjust="spacing" textLength="417" x="584" y="381.3857">getUserBook(userBookId: String, userId: String): UserBook</text><ellipse cx="575" cy="394.3359" fill="#84BE84" rx="3" ry="3" style="stroke:#038048;stroke-width:1.0;"/><text fill="#000000" font-family="sans-serif" font-size="14" lengthAdjust="spacing" textLength="313" x="584" y="397.6826">getUserBook(userBookId: String): UserBook</text><ellipse cx="575" cy="410.6328" fill="#84BE84" rx="3" ry="3" style="stroke:#038048;stroke-width:1.0;"/><text fill="#000000" font-family="sans-serif" font-size="14" lengthAdjust="spacing" textLength="374" x="584" y="413.9795">getByBook(bookId: String, userId: String): UserBook</text><ellipse cx="575" cy="426.9297" fill="#84BE84" rx="3" ry="3" style="stroke:#038048;stroke-width:1.0;"/><text fill="#000000" font-family="sans-serif" font-size="14" lengthAdjust="spacing" textLength="848" x="584" y="430.2764">findByCriteria(paginatedList: PaginatedList&lt;UserBookDto&gt;, criteria: UserBookCriteria, sortCriteria: SortCriteria): void</text></g><!--class UserBookDto--><g id="elem_UserBookDto"><rect codeLine="86" fill="#F1F1F1" height="178.375" id="UserBookDto" rx="2.5" ry="2.5" style="stroke:#181818;stroke-width:0.5;" width="204" x="666" y="531.7969"/><ellipse cx="716.25" cy="547.7969" fill="#ADD1B2" rx="11" ry="11" style="stroke:#181818;stroke-width:1.0;"/><path d="M718.5938,543.4688 C717.6563,543.0313 717.0625,542.8906 716.1875,542.8906 C713.5625,542.8906 711.5625,544.9688 711.5625,547.6875 L711.5625,548.8125 C711.5625,551.3906 713.6719,553.2813 716.5625,553.2813 C717.7813,553.2813 718.9375,552.9844 719.6875,552.4375 C720.2656,552.0313 720.5938,551.5781 720.5938,551.1875 C720.5938,550.7344 720.2031,550.3438 719.7344,550.3438 C719.5156,550.3438 719.3125,550.4219 719.125,550.6094 C718.6719,551.0938 718.6719,551.0938 718.4844,551.1875 C718.0625,551.4531 717.375,551.5781 716.6094,551.5781 C714.5625,551.5781 713.2656,550.4844 713.2656,548.7813 L713.2656,547.6875 C713.2656,545.9063 714.5156,544.5938 716.25,544.5938 C716.8281,544.5938 717.4375,544.75 717.9063,545 C718.3906,545.2813 718.5625,545.5 718.6563,545.9063 C718.7188,546.3125 718.75,546.4375 718.8906,546.5625 C719.0313,546.7031 719.2656,546.8125 719.4844,546.8125 C719.75,546.8125 720.0156,546.6719 720.1875,546.4531 C720.2969,546.2969 720.3281,546.1094 720.3281,545.6875 L720.3281,544.2656 C720.3281,543.8281 720.3125,543.7031 720.2188,543.5469 C720.0625,543.2813 719.7813,543.1406 719.4844,543.1406 C719.1875,543.1406 718.9844,543.2344 718.7656,543.5469 L718.5938,543.4688 Z " fill="#000000"/><text fill="#000000" font-family="sans-serif" font-size="14" lengthAdjust="spacing" textLength="95" x="736.75" y="552.6436">UserBookDto</text><line style="stroke:#181818;stroke-width:0.5;" x1="667" x2="869" y1="563.7969" y2="563.7969"/><rect fill="none" height="6" style="stroke:#C82930;stroke-width:1.0;" width="6" x="674" y="574.4453"/><text fill="#000000" font-family="sans-serif" font-size="14" lengthAdjust="spacing" textLength="66" x="686" y="580.792">id: String</text><rect fill="none" height="6" style="stroke:#C82930;stroke-width:1.0;" width="6" x="674" y="590.7422"/><text fill="#000000" font-family="sans-serif" font-size="14" lengthAdjust="spacing" textLength="84" x="686" y="597.0889">title: String</text><rect fill="none" height="6" style="stroke:#C82930;stroke-width:1.0;" width="6" x="674" y="607.0391"/><text fill="#000000" font-family="sans-serif" font-size="14" lengthAdjust="spacing" textLength="109" x="686" y="613.3857">subtitle: String</text><rect fill="none" height="6" style="stroke:#C82930;stroke-width:1.0;" width="6" x="674" y="623.3359"/><text fill="#000000" font-family="sans-serif" font-size="14" lengthAdjust="spacing" textLength="100" x="686" y="629.6826">author: String</text><rect fill="none" height="6" style="stroke:#C82930;stroke-width:1.0;" width="6" x="674" y="639.6328"/><text fill="#000000" font-family="sans-serif" font-size="14" lengthAdjust="spacing" textLength="117" x="686" y="645.9795">language: String</text><rect fill="none" height="6" style="stroke:#C82930;stroke-width:1.0;" width="6" x="674" y="655.9297"/><text fill="#000000" font-family="sans-serif" font-size="14" lengthAdjust="spacing" textLength="178" x="686" y="662.2764">publishTimestamp: Long</text><rect fill="none" height="6" style="stroke:#C82930;stroke-width:1.0;" width="6" x="674" y="672.2266"/><text fill="#000000" font-family="sans-serif" font-size="14" lengthAdjust="spacing" textLength="173" x="686" y="678.5732">createTimestamp: Long</text><rect fill="none" height="6" style="stroke:#C82930;stroke-width:1.0;" width="6" x="674" y="688.5234"/><text fill="#000000" font-family="sans-serif" font-size="14" lengthAdjust="spacing" textLength="158" x="686" y="694.8701">readTimestamp: Long</text><line style="stroke:#181818;stroke-width:0.5;" x1="667" x2="869" y1="702.1719" y2="702.1719"/></g><!--class UserBookTag--><g id="elem_UserBookTag"><rect codeLine="98" fill="#F1F1F1" height="145.7813" id="UserBookTag" rx="2.5" ry="2.5" style="stroke:#181818;stroke-width:0.5;" width="229" x="2379.5" y="547.7969"/><ellipse cx="2442.75" cy="563.7969" fill="#ADD1B2" rx="11" ry="11" style="stroke:#181818;stroke-width:1.0;"/><path d="M2445.0938,559.4688 C2444.1563,559.0313 2443.5625,558.8906 2442.6875,558.8906 C2440.0625,558.8906 2438.0625,560.9688 2438.0625,563.6875 L2438.0625,564.8125 C2438.0625,567.3906 2440.1719,569.2813 2443.0625,569.2813 C2444.2813,569.2813 2445.4375,568.9844 2446.1875,568.4375 C2446.7656,568.0313 2447.0938,567.5781 2447.0938,567.1875 C2447.0938,566.7344 2446.7031,566.3438 2446.2344,566.3438 C2446.0156,566.3438 2445.8125,566.4219 2445.625,566.6094 C2445.1719,567.0938 2445.1719,567.0938 2444.9844,567.1875 C2444.5625,567.4531 2443.875,567.5781 2443.1094,567.5781 C2441.0625,567.5781 2439.7656,566.4844 2439.7656,564.7813 L2439.7656,563.6875 C2439.7656,561.9063 2441.0156,560.5938 2442.75,560.5938 C2443.3281,560.5938 2443.9375,560.75 2444.4063,561 C2444.8906,561.2813 2445.0625,561.5 2445.1563,561.9063 C2445.2188,562.3125 2445.25,562.4375 2445.3906,562.5625 C2445.5313,562.7031 2445.7656,562.8125 2445.9844,562.8125 C2446.25,562.8125 2446.5156,562.6719 2446.6875,562.4531 C2446.7969,562.2969 2446.8281,562.1094 2446.8281,561.6875 L2446.8281,560.2656 C2446.8281,559.8281 2446.8125,559.7031 2446.7188,559.5469 C2446.5625,559.2813 2446.2813,559.1406 2445.9844,559.1406 C2445.6875,559.1406 2445.4844,559.2344 2445.2656,559.5469 L2445.0938,559.4688 Z " fill="#000000"/><text fill="#000000" font-family="sans-serif" font-size="14" lengthAdjust="spacing" textLength="94" x="2463.25" y="568.6436">UserBookTag</text><line style="stroke:#181818;stroke-width:0.5;" x1="2380.5" x2="2607.5" y1="579.7969" y2="579.7969"/><rect fill="none" height="6" style="stroke:#C82930;stroke-width:1.0;" width="6" x="2387.5" y="590.4453"/><text fill="#000000" font-family="sans-serif" font-size="14" lengthAdjust="spacing" textLength="66" x="2399.5" y="596.792">id: String</text><rect fill="none" height="6" style="stroke:#C82930;stroke-width:1.0;" width="6" x="2387.5" y="606.7422"/><text fill="#000000" font-family="sans-serif" font-size="14" lengthAdjust="spacing" textLength="133" x="2399.5" y="613.0889">userBookId: String</text><rect fill="none" height="6" style="stroke:#C82930;stroke-width:1.0;" width="6" x="2387.5" y="623.0391"/><text fill="#000000" font-family="sans-serif" font-size="14" lengthAdjust="spacing" textLength="90" x="2399.5" y="629.3857">tagId: String</text><line style="stroke:#181818;stroke-width:0.5;" x1="2380.5" x2="2607.5" y1="636.6875" y2="636.6875"/><ellipse cx="2390.5" cy="650.3359" fill="#84BE84" rx="3" ry="3" style="stroke:#038048;stroke-width:1.0;"/><text fill="#000000" font-family="sans-serif" font-size="14" lengthAdjust="spacing" textLength="109" x="2399.5" y="653.6826">hashCode(): int</text><ellipse cx="2390.5" cy="666.6328" fill="#84BE84" rx="3" ry="3" style="stroke:#038048;stroke-width:1.0;"/><text fill="#000000" font-family="sans-serif" font-size="14" lengthAdjust="spacing" textLength="203" x="2399.5" y="669.9795">equals(obj: Object): boolean</text><ellipse cx="2390.5" cy="682.9297" fill="#84BE84" rx="3" ry="3" style="stroke:#038048;stroke-width:1.0;"/><text fill="#000000" font-family="sans-serif" font-size="14" lengthAdjust="spacing" textLength="123" x="2399.5" y="686.2764">toString(): String</text></g><!--class PaginatedList--><g id="elem_PaginatedList"><rect codeLine="108" fill="#F1F1F1" height="162.0781" id="PaginatedList" rx="2.5" ry="2.5" style="stroke:#181818;stroke-width:0.5;" width="310" x="1289" y="811.7969"/><ellipse cx="1385.25" cy="827.7969" fill="#ADD1B2" rx="11" ry="11" style="stroke:#181818;stroke-width:1.0;"/><path d="M1387.5938,823.4688 C1386.6563,823.0313 1386.0625,822.8906 1385.1875,822.8906 C1382.5625,822.8906 1380.5625,824.9688 1380.5625,827.6875 L1380.5625,828.8125 C1380.5625,831.3906 1382.6719,833.2813 1385.5625,833.2813 C1386.7813,833.2813 1387.9375,832.9844 1388.6875,832.4375 C1389.2656,832.0313 1389.5938,831.5781 1389.5938,831.1875 C1389.5938,830.7344 1389.2031,830.3438 1388.7344,830.3438 C1388.5156,830.3438 1388.3125,830.4219 1388.125,830.6094 C1387.6719,831.0938 1387.6719,831.0938 1387.4844,831.1875 C1387.0625,831.4531 1386.375,831.5781 1385.6094,831.5781 C1383.5625,831.5781 1382.2656,830.4844 1382.2656,828.7813 L1382.2656,827.6875 C1382.2656,825.9063 1383.5156,824.5938 1385.25,824.5938 C1385.8281,824.5938 1386.4375,824.75 1386.9063,825 C1387.3906,825.2813 1387.5625,825.5 1387.6563,825.9063 C1387.7188,826.3125 1387.75,826.4375 1387.8906,826.5625 C1388.0313,826.7031 1388.2656,826.8125 1388.4844,826.8125 C1388.75,826.8125 1389.0156,826.6719 1389.1875,826.4531 C1389.2969,826.2969 1389.3281,826.1094 1389.3281,825.6875 L1389.3281,824.2656 C1389.3281,823.8281 1389.3125,823.7031 1389.2188,823.5469 C1389.0625,823.2813 1388.7813,823.1406 1388.4844,823.1406 C1388.1875,823.1406 1387.9844,823.2344 1387.7656,823.5469 L1387.5938,823.4688 Z " fill="#000000"/><text fill="#000000" font-family="sans-serif" font-size="14" lengthAdjust="spacing" textLength="98" x="1405.75" y="832.6436">PaginatedList</text><rect fill="#FFFFFF" height="15.9688" style="stroke:#181818;stroke-width:1.0;stroke-dasharray:2.0,2.0;" width="9" x="1593" y="808.7969"/><text fill="#000000" font-family="sans-serif" font-size="12" font-style="italic" lengthAdjust="spacing" textLength="7" x="1594" y="820.9355">T</text><line style="stroke:#181818;stroke-width:0.5;" x1="1290" x2="1598" y1="843.7969" y2="843.7969"/><rect fill="none" height="6" style="stroke:#C82930;stroke-width:1.0;" width="6" x="1297" y="854.4453"/><text fill="#000000" font-family="sans-serif" font-size="14" lengthAdjust="spacing" textLength="62" x="1309" y="860.792">limit: int</text><rect fill="none" height="6" style="stroke:#C82930;stroke-width:1.0;" width="6" x="1297" y="870.7422"/><text fill="#000000" font-family="sans-serif" font-size="14" lengthAdjust="spacing" textLength="73" x="1309" y="877.0889">offset: int</text><rect fill="none" height="6" style="stroke:#C82930;stroke-width:1.0;" width="6" x="1297" y="887.0391"/><text fill="#000000" font-family="sans-serif" font-size="14" lengthAdjust="spacing" textLength="113" x="1309" y="893.3857">resultCount: int</text><rect fill="none" height="6" style="stroke:#C82930;stroke-width:1.0;" width="6" x="1297" y="903.3359"/><text fill="#000000" font-family="sans-serif" font-size="14" lengthAdjust="spacing" textLength="133" x="1309" y="909.6826">resultList: List&lt;T&gt;</text><line style="stroke:#181818;stroke-width:0.5;" x1="1290" x2="1598" y1="916.9844" y2="916.9844"/><ellipse cx="1300" cy="930.6328" fill="#84BE84" rx="3" ry="3" style="stroke:#038048;stroke-width:1.0;"/><text fill="#000000" font-family="sans-serif" font-size="14" lengthAdjust="spacing" textLength="284" x="1309" y="933.9795">PaginatedList(pageSize: int, offset: int)</text><ellipse cx="1300" cy="946.9297" fill="#84BE84" rx="3" ry="3" style="stroke:#038048;stroke-width:1.0;"/><text fill="#000000" font-family="sans-serif" font-size="14" lengthAdjust="spacing" textLength="101" x="1309" y="950.2764">getLimit(): int</text><ellipse cx="1300" cy="963.2266" fill="#84BE84" rx="3" ry="3" style="stroke:#038048;stroke-width:1.0;"/><text fill="#000000" font-family="sans-serif" font-size="14" lengthAdjust="spacing" textLength="110" x="1309" y="966.5732">getOffset(): int</text></g><!--class PaginatedLists--><g id="elem_PaginatedLists"><rect codeLine="119" fill="#F1F1F1" height="178.375" id="PaginatedLists" rx="2.5" ry="2.5" style="stroke:#181818;stroke-width:0.5;" width="935" x="976.5" y="531.7969"/><ellipse cx="1387.25" cy="547.7969" fill="#ADD1B2" rx="11" ry="11" style="stroke:#181818;stroke-width:1.0;"/><path d="M1389.5938,543.4688 C1388.6563,543.0313 1388.0625,542.8906 1387.1875,542.8906 C1384.5625,542.8906 1382.5625,544.9688 1382.5625,547.6875 L1382.5625,548.8125 C1382.5625,551.3906 1384.6719,553.2813 1387.5625,553.2813 C1388.7813,553.2813 1389.9375,552.9844 1390.6875,552.4375 C1391.2656,552.0313 1391.5938,551.5781 1391.5938,551.1875 C1391.5938,550.7344 1391.2031,550.3438 1390.7344,550.3438 C1390.5156,550.3438 1390.3125,550.4219 1390.125,550.6094 C1389.6719,551.0938 1389.6719,551.0938 1389.4844,551.1875 C1389.0625,551.4531 1388.375,551.5781 1387.6094,551.5781 C1385.5625,551.5781 1384.2656,550.4844 1384.2656,548.7813 L1384.2656,547.6875 C1384.2656,545.9063 1385.5156,544.5938 1387.25,544.5938 C1387.8281,544.5938 1388.4375,544.75 1388.9063,545 C1389.3906,545.2813 1389.5625,545.5 1389.6563,545.9063 C1389.7188,546.3125 1389.75,546.4375 1389.8906,546.5625 C1390.0313,546.7031 1390.2656,546.8125 1390.4844,546.8125 C1390.75,546.8125 1391.0156,546.6719 1391.1875,546.4531 C1391.2969,546.2969 1391.3281,546.1094 1391.3281,545.6875 L1391.3281,544.2656 C1391.3281,543.8281 1391.3125,543.7031 1391.2188,543.5469 C1391.0625,543.2813 1390.7813,543.1406 1390.4844,543.1406 C1390.1875,543.1406 1389.9844,543.2344 1389.7656,543.5469 L1389.5938,543.4688 Z " fill="#000000"/><text fill="#000000" font-family="sans-serif" font-size="14" lengthAdjust="spacing" textLength="105" x="1407.75" y="552.6436">PaginatedLists</text><line style="stroke:#181818;stroke-width:0.5;" x1="977.5" x2="1910.5" y1="563.7969" y2="563.7969"/><rect fill="none" height="6" style="stroke:#C82930;stroke-width:1.0;" width="6" x="984.5" y="574.4453"/><text fill="#000000" font-family="sans-serif" font-size="14" lengthAdjust="spacing" textLength="178" x="996.5" y="580.792">DEFAULT_PAGE_SIZE: int</text><rect fill="none" height="6" style="stroke:#C82930;stroke-width:1.0;" width="6" x="984.5" y="590.7422"/><text fill="#000000" font-family="sans-serif" font-size="14" lengthAdjust="spacing" textLength="146" x="996.5" y="597.0889">MAX_PAGE_SIZE: int</text><line style="stroke:#181818;stroke-width:0.5;" x1="977.5" x2="1910.5" y1="604.3906" y2="604.3906"/><ellipse cx="987.5" cy="618.0391" fill="#84BE84" rx="3" ry="3" style="stroke:#038048;stroke-width:1.0;"/><text fill="#000000" font-family="sans-serif" font-size="14" lengthAdjust="spacing" textLength="437" x="996.5" y="621.3857">create(pageSize: Integer, offset: Integer): PaginatedList&lt;E&gt;</text><ellipse cx="987.5" cy="634.3359" fill="#84BE84" rx="3" ry="3" style="stroke:#038048;stroke-width:1.0;"/><text fill="#000000" font-family="sans-serif" font-size="14" lengthAdjust="spacing" textLength="195" x="996.5" y="637.6826">create(): PaginatedList&lt;E&gt;</text><ellipse cx="987.5" cy="650.6328" fill="#84BE84" rx="3" ry="3" style="stroke:#038048;stroke-width:1.0;"/><text fill="#000000" font-family="sans-serif" font-size="14" lengthAdjust="spacing" textLength="618" x="996.5" y="653.9795">executeCountQuery(paginatedList: PaginatedList&lt;E&gt;, queryParam: QueryParam): void</text><ellipse cx="987.5" cy="666.9297" fill="#84BE84" rx="3" ry="3" style="stroke:#038048;stroke-width:1.0;"/><text fill="#000000" font-family="sans-serif" font-size="14" lengthAdjust="spacing" textLength="697" x="996.5" y="670.2764">executeResultQuery(paginatedList: PaginatedList&lt;E&gt;, queryParam: QueryParam): List&lt;Object[]&gt;</text><ellipse cx="987.5" cy="683.2266" fill="#84BE84" rx="3" ry="3" style="stroke:#038048;stroke-width:1.0;"/><text fill="#000000" font-family="sans-serif" font-size="14" lengthAdjust="spacing" textLength="724" x="996.5" y="686.5732">executePaginatedQuery(paginatedList: PaginatedList&lt;E&gt;, queryParam: QueryParam): List&lt;Object[]&gt;</text><ellipse cx="987.5" cy="699.5234" fill="#84BE84" rx="3" ry="3" style="stroke:#038048;stroke-width:1.0;"/><text fill="#000000" font-family="sans-serif" font-size="14" lengthAdjust="spacing" textLength="909" x="996.5" y="702.8701">executePaginatedQuery(paginatedList: PaginatedList&lt;E&gt;, queryParam: QueryParam, sortCriteria: SortCriteria): List&lt;Object[]&gt;</text></g><!--class Book--><g id="elem_Book"><rect codeLine="132" fill="#F1F1F1" height="227.2656" id="Book" rx="2.5" ry="2.5" style="stroke:#181818;stroke-width:0.5;" width="161" x="320.5" y="779.2969"/><ellipse cx="378.25" cy="795.2969" fill="#ADD1B2" rx="11" ry="11" style="stroke:#181818;stroke-width:1.0;"/><path d="M380.5938,790.9688 C379.6563,790.5313 379.0625,790.3906 378.1875,790.3906 C375.5625,790.3906 373.5625,792.4688 373.5625,795.1875 L373.5625,796.3125 C373.5625,798.8906 375.6719,800.7813 378.5625,800.7813 C379.7813,800.7813 380.9375,800.4844 381.6875,799.9375 C382.2656,799.5313 382.5938,799.0781 382.5938,798.6875 C382.5938,798.2344 382.2031,797.8438 381.7344,797.8438 C381.5156,797.8438 381.3125,797.9219 381.125,798.1094 C380.6719,798.5938 380.6719,798.5938 380.4844,798.6875 C380.0625,798.9531 379.375,799.0781 378.6094,799.0781 C376.5625,799.0781 375.2656,797.9844 375.2656,796.2813 L375.2656,795.1875 C375.2656,793.4063 376.5156,792.0938 378.25,792.0938 C378.8281,792.0938 379.4375,792.25 379.9063,792.5 C380.3906,792.7813 380.5625,793 380.6563,793.4063 C380.7188,793.8125 380.75,793.9375 380.8906,794.0625 C381.0313,794.2031 381.2656,794.3125 381.4844,794.3125 C381.75,794.3125 382.0156,794.1719 382.1875,793.9531 C382.2969,793.7969 382.3281,793.6094 382.3281,793.1875 L382.3281,791.7656 C382.3281,791.3281 382.3125,791.2031 382.2188,791.0469 C382.0625,790.7813 381.7813,790.6406 381.4844,790.6406 C381.1875,790.6406 380.9844,790.7344 380.7656,791.0469 L380.5938,790.9688 Z " fill="#000000"/><text fill="#000000" font-family="sans-serif" font-size="14" lengthAdjust="spacing" textLength="37" x="398.75" y="800.1436">Book</text><line style="stroke:#181818;stroke-width:0.5;" x1="321.5" x2="480.5" y1="811.2969" y2="811.2969"/><rect fill="none" height="6" style="stroke:#C82930;stroke-width:1.0;" width="6" x="328.5" y="821.9453"/><text fill="#000000" font-family="sans-serif" font-size="14" lengthAdjust="spacing" textLength="57" x="340.5" y="828.292">id: Long</text><rect fill="none" height="6" style="stroke:#C82930;stroke-width:1.0;" width="6" x="328.5" y="838.2422"/><text fill="#000000" font-family="sans-serif" font-size="14" lengthAdjust="spacing" textLength="84" x="340.5" y="844.5889">title: String</text><rect fill="none" height="6" style="stroke:#C82930;stroke-width:1.0;" width="6" x="328.5" y="854.5391"/><text fill="#000000" font-family="sans-serif" font-size="14" lengthAdjust="spacing" textLength="109" x="340.5" y="860.8857">subtitle: String</text><rect fill="none" height="6" style="stroke:#C82930;stroke-width:1.0;" width="6" x="328.5" y="870.8359"/><text fill="#000000" font-family="sans-serif" font-size="14" lengthAdjust="spacing" textLength="100" x="340.5" y="877.1826">author: String</text><rect fill="none" height="6" style="stroke:#C82930;stroke-width:1.0;" width="6" x="328.5" y="887.1328"/><text fill="#000000" font-family="sans-serif" font-size="14" lengthAdjust="spacing" textLength="135" x="340.5" y="893.4795">description: String</text><rect fill="none" height="6" style="stroke:#C82930;stroke-width:1.0;" width="6" x="328.5" y="903.4297"/><text fill="#000000" font-family="sans-serif" font-size="14" lengthAdjust="spacing" textLength="101" x="340.5" y="909.7764">isbn10: String</text><rect fill="none" height="6" style="stroke:#C82930;stroke-width:1.0;" width="6" x="328.5" y="919.7266"/><text fill="#000000" font-family="sans-serif" font-size="14" lengthAdjust="spacing" textLength="101" x="340.5" y="926.0732">isbn13: String</text><rect fill="none" height="6" style="stroke:#C82930;stroke-width:1.0;" width="6" x="328.5" y="936.0234"/><text fill="#000000" font-family="sans-serif" font-size="14" lengthAdjust="spacing" textLength="123" x="340.5" y="942.3701">pageCount: Long</text><rect fill="none" height="6" style="stroke:#C82930;stroke-width:1.0;" width="6" x="328.5" y="952.3203"/><text fill="#000000" font-family="sans-serif" font-size="14" lengthAdjust="spacing" textLength="117" x="340.5" y="958.667">language: String</text><rect fill="none" height="6" style="stroke:#C82930;stroke-width:1.0;" width="6" x="328.5" y="968.6172"/><text fill="#000000" font-family="sans-serif" font-size="14" lengthAdjust="spacing" textLength="131" x="340.5" y="974.9639">publishDate: Date</text><line style="stroke:#181818;stroke-width:0.5;" x1="321.5" x2="480.5" y1="982.2656" y2="982.2656"/><ellipse cx="331.5" cy="995.9141" fill="#84BE84" rx="3" ry="3" style="stroke:#038048;stroke-width:1.0;"/><text fill="#000000" font-family="sans-serif" font-size="14" lengthAdjust="spacing" textLength="123" x="340.5" y="999.2607">toString(): String</text></g><!--class BookResource--><g id="elem_BookResource"><rect codeLine="147" fill="#F1F1F1" height="145.7813" id="BookResource" rx="2.5" ry="2.5" style="stroke:#181818;stroke-width:0.5;" width="938" x="1022" y="44.2969"/><ellipse cx="1435.25" cy="60.2969" fill="#ADD1B2" rx="11" ry="11" style="stroke:#181818;stroke-width:1.0;"/><path d="M1437.5938,55.9688 C1436.6563,55.5313 1436.0625,55.3906 1435.1875,55.3906 C1432.5625,55.3906 1430.5625,57.4688 1430.5625,60.1875 L1430.5625,61.3125 C1430.5625,63.8906 1432.6719,65.7813 1435.5625,65.7813 C1436.7813,65.7813 1437.9375,65.4844 1438.6875,64.9375 C1439.2656,64.5313 1439.5938,64.0781 1439.5938,63.6875 C1439.5938,63.2344 1439.2031,62.8438 1438.7344,62.8438 C1438.5156,62.8438 1438.3125,62.9219 1438.125,63.1094 C1437.6719,63.5938 1437.6719,63.5938 1437.4844,63.6875 C1437.0625,63.9531 1436.375,64.0781 1435.6094,64.0781 C1433.5625,64.0781 1432.2656,62.9844 1432.2656,61.2813 L1432.2656,60.1875 C1432.2656,58.4063 1433.5156,57.0938 1435.25,57.0938 C1435.8281,57.0938 1436.4375,57.25 1436.9063,57.5 C1437.3906,57.7813 1437.5625,58 1437.6563,58.4063 C1437.7188,58.8125 1437.75,58.9375 1437.8906,59.0625 C1438.0313,59.2031 1438.2656,59.3125 1438.4844,59.3125 C1438.75,59.3125 1439.0156,59.1719 1439.1875,58.9531 C1439.2969,58.7969 1439.3281,58.6094 1439.3281,58.1875 L1439.3281,56.7656 C1439.3281,56.3281 1439.3125,56.2031 1439.2188,56.0469 C1439.0625,55.7813 1438.7813,55.6406 1438.4844,55.6406 C1438.1875,55.6406 1437.9844,55.7344 1437.7656,56.0469 L1437.5938,55.9688 Z " fill="#000000"/><text fill="#000000" font-family="sans-serif" font-size="14" lengthAdjust="spacing" textLength="103" x="1455.75" y="65.1436">BookResource</text><line style="stroke:#181818;stroke-width:0.5;" x1="1023" x2="1959" y1="76.2969" y2="76.2969"/><line style="stroke:#181818;stroke-width:0.5;" x1="1023" x2="1959" y1="84.2969" y2="84.2969"/><ellipse cx="1033" cy="97.9453" fill="#84BE84" rx="3" ry="3" style="stroke:#038048;stroke-width:1.0;"/><text fill="#000000" font-family="sans-serif" font-size="14" lengthAdjust="spacing" textLength="247" x="1042" y="101.292">get(userBookId: String): Response</text><ellipse cx="1033" cy="114.2422" fill="#84BE84" rx="3" ry="3" style="stroke:#038048;stroke-width:1.0;"/><text fill="#000000" font-family="sans-serif" font-size="14" lengthAdjust="spacing" textLength="262" x="1042" y="117.5889">cover(userBookId: String): Response</text><ellipse cx="1033" cy="130.5391" fill="#84BE84" rx="3" ry="3" style="stroke:#038048;stroke-width:1.0;"/><text fill="#000000" font-family="sans-serif" font-size="14" lengthAdjust="spacing" textLength="439" x="1042" y="133.8857">updateCover(userBookId: String, imageUrl: String): Response</text><ellipse cx="1033" cy="146.8359" fill="#84BE84" rx="3" ry="3" style="stroke:#038048;stroke-width:1.0;"/><text fill="#000000" font-family="sans-serif" font-size="14" lengthAdjust="spacing" textLength="912" x="1042" y="150.1826">list(limit: Integer, offset: Integer, sortColumn: Integer, asc: Boolean, search: String, read: Boolean, tagName: String): Response</text><ellipse cx="1033" cy="163.1328" fill="#84BE84" rx="3" ry="3" style="stroke:#038048;stroke-width:1.0;"/><text fill="#000000" font-family="sans-serif" font-size="14" lengthAdjust="spacing" textLength="399" x="1042" y="166.4795">importFile(fileBodyPart: FormDataBodyPart): Response</text><ellipse cx="1033" cy="179.4297" fill="#84BE84" rx="3" ry="3" style="stroke:#038048;stroke-width:1.0;"/><text fill="#000000" font-family="sans-serif" font-size="14" lengthAdjust="spacing" textLength="361" x="1042" y="182.7764">read(userBookId: String, read: boolean): Response</text></g><!--link TagResource to BaseResource--><g id="link_TagResource_BaseResource"><path codeLine="157" d="M2796,174.0049 C2796,208.8059 2796,235.9789 2796,273.5239 " fill="none" id="TagResource-to-BaseResource" style="stroke:#181818;stroke-width:1.0;"/><polygon fill="none" points="2796,291.5239,2802,273.5239,2790,273.5239,2796,291.5239" style="stroke:#181818;stroke-width:1.0;"/></g><!--link BookResource to BaseResource--><g id="link_BookResource_BaseResource"><path codeLine="158" d="M1960.32,156.6159 C2150.58,179.0349 2371,213.8539 2566,267.2969 C2590.12,273.9069 2598.2525,276.0022 2622.4125,285.2632 " fill="none" id="BookResource-to-BaseResource" style="stroke:#181818;stroke-width:1.0;"/><polygon fill="none" points="2639.22,291.7059,2624.56,279.6607,2620.2649,290.8657,2639.22,291.7059" style="stroke:#181818;stroke-width:1.0;"/></g><!--link PaginatedLists to PaginatedList--><g id="link_PaginatedLists_PaginatedList"><path codeLine="159" d="M1444,709.8309 C1444,742.6099 1444,773.6079 1444,805.6419 " fill="none" id="PaginatedLists-to-PaginatedList" style="stroke:#181818;stroke-width:1.0;stroke-dasharray:7.0,7.0;"/><polygon fill="#181818" points="1444,811.6419,1448,802.6419,1444,806.6419,1440,802.6419,1444,811.6419" style="stroke:#181818;stroke-width:1.0;"/></g><!--link BookResource to UserBookDao--><g id="link_BookResource_UserBookDao"><path codeLine="161" d="M1346.96,190.4619 C1283.3,222.3609 1213.9644,257.0973 1150.3044,288.9913 " fill="none" id="BookResource-to-UserBookDao" style="stroke:#181818;stroke-width:1.0;stroke-dasharray:7.0,7.0;"/><polygon fill="#181818" points="1144.94,291.6789,1154.7783,291.2238,1149.4103,289.4392,1151.1949,284.0712,1144.94,291.6789" style="stroke:#181818;stroke-width:1.0;"/></g><!--link BookResource to TagDao--><g id="link_BookResource_TagDao"><path codeLine="162" d="M1941.9,190.3549 C1975.42,199.2719 2008.44,209.2169 2040,220.2969 C2075.73,232.8419 2107.1425,246.8863 2141.5425,264.5493 " fill="none" id="BookResource-to-TagDao" style="stroke:#181818;stroke-width:1.0;stroke-dasharray:7.0,7.0;"/><polygon fill="#181818" points="2146.88,267.2899,2140.7008,259.6206,2142.4321,265.006,2137.0467,266.7373,2146.88,267.2899" style="stroke:#181818;stroke-width:1.0;"/></g><!--link BookResource to TagDto--><g id="link_BookResource_TagDto"><path codeLine="163" d="M1914.22,190.3349 C1937.99,199.3569 1957.04,209.3269 1969,220.2969 C1982.34,232.5379 2047.5331,463.1211 2076.2431,566.4021 " fill="none" id="BookResource-to-TagDto" style="stroke:#181818;stroke-width:1.0;stroke-dasharray:7.0,7.0;"/><polygon fill="#181818" points="2077.85,572.1829,2079.2935,562.4404,2076.5109,567.3655,2071.5857,564.583,2077.85,572.1829" style="stroke:#181818;stroke-width:1.0;"/></g><!--link BookResource to BookImportedEvent--><g id="link_BookResource_BookImportedEvent"><path codeLine="164" d="M1021.98,142.7789 C727.327,161.0529 391.51,188.3189 329,220.2969 C287.522,241.5159 257.3093,278.1054 235.6313,311.0764 " fill="none" id="BookResource-to-BookImportedEvent" style="stroke:#181818;stroke-width:1.0;stroke-dasharray:7.0,7.0;"/><polygon fill="#181818" points="232.335,316.0899,240.6217,310.7672,235.0819,311.912,233.9371,306.3722,232.335,316.0899" style="stroke:#181818;stroke-width:1.0;"/></g><!--link BookResource to Book--><g id="link_BookResource_Book"><path codeLine="165" d="M1021.94,131.6569 C795.118,148.7749 556.072,186.2649 482,267.2969 C355.126,406.0909 361.39,634.3413 379.676,773.0913 " fill="none" id="BookResource-to-Book" style="stroke:#181818;stroke-width:1.0;stroke-dasharray:7.0,7.0;"/><polygon fill="#181818" points="380.46,779.0399,383.2498,769.5944,379.8067,774.0827,375.3183,770.6397,380.46,779.0399" style="stroke:#181818;stroke-width:1.0;"/></g><!--link BookResource to UserBook--><g id="link_BookResource_UserBook"><path codeLine="166" d="M1021.77,138.9529 C818.984,158.2739 612.806,195.5359 546,267.2969 C483.225,334.7279 482.8747,438.2189 494.0437,517.2809 " fill="none" id="BookResource-to-UserBook" style="stroke:#181818;stroke-width:1.0;stroke-dasharray:7.0,7.0;"/><polygon fill="#181818" points="494.883,523.2219,497.5848,513.7508,494.1836,518.271,489.6634,514.8699,494.883,523.2219" style="stroke:#181818;stroke-width:1.0;"/></g><!--link BookResource to PaginatedList--><g id="link_BookResource_PaginatedList"><path codeLine="167" d="M1611.75,190.4569 C1783.84,302.5669 2064.63,525.7359 1929,718.2969 C1854.98,823.3959 1717.0964,864.2983 1605.2064,880.7253 " fill="none" id="BookResource-to-PaginatedList" style="stroke:#181818;stroke-width:1.0;stroke-dasharray:7.0,7.0;"/><polygon fill="#181818" points="1599.27,881.5969,1608.7556,884.2471,1604.217,880.8706,1607.5935,876.332,1599.27,881.5969" style="stroke:#181818;stroke-width:1.0;"/></g><!--link BookResource to PaginatedLists--><g id="link_BookResource_PaginatedLists"><path codeLine="168" d="M1484.24,190.4169 C1475.79,280.5389 1461.9097,428.72 1452.8197,525.733 " fill="none" id="BookResource-to-PaginatedLists" style="stroke:#181818;stroke-width:1.0;stroke-dasharray:7.0,7.0;"/><polygon fill="#181818" points="1452.26,531.7069,1457.0822,523.1193,1452.7265,526.7287,1449.1171,522.373,1452.26,531.7069" style="stroke:#181818;stroke-width:1.0;"/></g><!--link UserBookDao to UserBook--><g id="link_UserBookDao_UserBook"><path codeLine="170" d="M819.577,437.9659 C763.34,462.6449 701.991,491.9909 648,523.2969 C642.229,526.6429 641.4758,526.9805 635.6578,530.6605 " fill="none" id="UserBookDao-to-UserBook" style="stroke:#181818;stroke-width:1.0;stroke-dasharray:7.0,7.0;"/><polygon fill="#181818" points="630.587,533.8679,640.3314,532.4373,634.8126,531.1951,636.0549,525.6763,630.587,533.8679" style="stroke:#181818;stroke-width:1.0;"/></g><!--link UserBookDao to UserBookDto--><g id="link_UserBookDao_UserBookDto"><path codeLine="171" d="M934.855,437.9039 C908.081,467.0909 880.9699,496.6454 852.8689,527.2794 " fill="none" id="UserBookDao-to-UserBookDto" style="stroke:#181818;stroke-width:1.0;stroke-dasharray:7.0,7.0;"/><polygon fill="#181818" points="848.813,531.7009,857.8445,527.7726,852.1929,528.0163,851.9492,522.3647,848.813,531.7009" style="stroke:#181818;stroke-width:1.0;"/></g><!--link UserBookDao to PaginatedList--><g id="link_UserBookDao_PaginatedList"><path codeLine="172" d="M965.93,437.9859 C934.302,514.6069 900.887,635.7879 959,718.2969 C1033.02,823.3959 1170.9036,864.2983 1282.7936,880.7253 " fill="none" id="UserBookDao-to-PaginatedList" style="stroke:#181818;stroke-width:1.0;stroke-dasharray:7.0,7.0;"/><polygon fill="#181818" points="1288.73,881.5969,1280.4065,876.332,1283.783,880.8706,1279.2444,884.2471,1288.73,881.5969" style="stroke:#181818;stroke-width:1.0;"/></g><!--link UserBookDao to PaginatedLists--><g id="link_UserBookDao_PaginatedLists"><path codeLine="173" d="M1126.76,437.9039 C1177.67,467.0909 1231.7149,498.0825 1285.1449,528.7165 " fill="none" id="UserBookDao-to-PaginatedLists" style="stroke:#181818;stroke-width:1.0;stroke-dasharray:7.0,7.0;"/><polygon fill="#181818" points="1290.35,531.7009,1284.5319,523.7542,1286.0124,529.2139,1280.5527,530.6944,1290.35,531.7009" style="stroke:#181818;stroke-width:1.0;"/></g><!--link UserBook to Book--><g id="link_UserBook_Book"><path codeLine="175" d="M474.807,718.5109 C466.429,738.1819 459.8983,753.5148 451.3083,773.6818 " fill="none" id="UserBook-to-Book" style="stroke:#181818;stroke-width:1.0;"/><polygon fill="#181818" points="448.957,779.2019,456.164,772.4892,450.9164,774.6018,448.8038,769.3542,448.957,779.2019" style="stroke:#181818;stroke-width:1.0;"/></g><!--link TagDao to Tag--><g id="link_TagDao_Tag"><path codeLine="177" d="M2292.76,462.5479 C2288.77,487.9239 2285.4322,509.0827 2281.5922,533.4987 " fill="none" id="TagDao-to-Tag" style="stroke:#181818;stroke-width:1.0;stroke-dasharray:7.0,7.0;"/><polygon fill="#181818" points="2280.66,539.4259,2286.0097,531.1566,2281.4368,534.4866,2278.1068,529.9137,2280.66,539.4259" style="stroke:#181818;stroke-width:1.0;"/></g><!--link TagDao to TagDto--><g id="link_TagDao_TagDto"><path codeLine="178" d="M2225.34,462.5479 C2193.24,500.1209 2161.8375,536.8822 2135.4775,567.7342 " fill="none" id="TagDao-to-TagDto" style="stroke:#181818;stroke-width:1.0;stroke-dasharray:7.0,7.0;"/><polygon fill="#181818" points="2131.58,572.2959,2140.4674,568.0517,2134.8279,568.4944,2134.3852,562.8549,2131.58,572.2959" style="stroke:#181818;stroke-width:1.0;"/></g><!--link TagDao to UserBookTag--><g id="link_TagDao_UserBookTag"><path codeLine="179" d="M2378.85,462.5479 C2399.48,490.7269 2418.1142,516.1757 2437.4542,542.5757 " fill="none" id="TagDao-to-UserBookTag" style="stroke:#181818;stroke-width:1.0;stroke-dasharray:7.0,7.0;"/><polygon fill="#181818" points="2441,547.4159,2438.9081,537.7917,2438.0452,543.3824,2432.4545,542.5195,2441,547.4159" style="stroke:#181818;stroke-width:1.0;"/></g><!--link BookImportAsyncListener to BookImportedEvent--><g id="link_BookImportAsyncListener_BookImportedEvent"><path codeLine="181" d="M203.561,158.0119 C202.946,176.8789 202.302,199.7489 202,220.2969 C201.529,252.3139 201.7263,270.3536 202.5973,298.3016 " fill="none" id="BookImportAsyncListener-to-BookImportedEvent" style="stroke:#181818;stroke-width:1.0;"/><polygon fill="none" points="203.158,316.2929,208.5944,298.1147,196.6002,298.4885,203.158,316.2929" style="stroke:#181818;stroke-width:1.0;"/><text fill="#000000" font-family="sans-serif" font-size="13" lengthAdjust="spacing" textLength="77" x="203" y="233.3638">&#171;subscribe&#187;</text></g><!--SRC=[rLXjRzis4FxkNq4WNnJ4AJRics0OY1rdCvQrQUm0HOUXeAIpp5OMLP4AvcxxxpjIRwH8ELux39Y1A1BlZlV-w2Z9P0PamVadiOTiDvaG_CKP5K8lhWy5BoKagsV89Vb3KzNlcbG2of0yuTLOP9hzZcKG4dMTTBGh8lb6bYnFWykGr7UQ-9TVvOquvl4z4n9oA2t56Kz3Si_JrD1yHNWUH4DxGzS5rFtCMT9gDbHlQMgfOObbPk_qsaV8wG4yot49LC8j_eL4NKqIptZf4KaW0qla7uOG_RYbt73bAWMvEAwJeFS8nP5jmF6aVGji5v5J9M66xFEUloeIj0pN54rBw41tKbCYQRfEDe0fmCkiNfsRmRVrrkAUdGpzjv8R9jIH3L2FzkNIYMIz-MlCoy2bgPKiRoYsodf7JFiq9bUdBHZosFxkM9wSPvCTz2R1D1AofB5icuKAU0J1gp868zyNf8JF5GYC_KzI5Xiedz6qnthDuA95yJCSdRXTa0AVOrRGB2JhX_P-OafMSe-zn6AL0JGM6oy3cXiSyHxYJyg-kogF9LFDQJo4n2GDetH1zbISBsig7pQ29pfN95CrYu98B7Wkm23H90dCH4pjBlKBrSrWT9UTpBFs6AaUYzFfSibV1gmnN7B0nmR3jYU_0H4Zgu_FmqG7-teI2YL-KCHgsIzveYkHvTAWOCdJJ0Gy-XYIDz57YAMdM4-XgYSY0snjlEcGA-mOFOZKffcD8mH1_6bty0Ah0yyjzzbxZCeiZbeY-WgDDR0jIoQXP3GeQCfo34kYO2ma3-RZh8iauZasHoFJRzlkCYK2tzlBZhundWQlSK-QpcaEgMOVpxgeeZ6IWZxlQpkZULhHr2TJL15YpdxB3WZ0z52ewSNJ4UDqLVi-ghz2pnva5cCTQi7GVzHglHzsjMpdzl373apQogy9t-q4EAibY2gJIrxb8wIwE1ijXf6M0QgMOSE-WDvZQkgwjDldNfdcHWOfRxICIR8pPoaKbh-tgxkRf_ljXuUR7rSVDkltgw4hlzoy6oDsuDIxiCubuDpSkz4iN0wRT3LtjpdD1Bz3N4dGyNvRGNayZG8hxFtFYks1blGGahVTlOk9pTQFEclVkhVcg4lqrzyy3dHR_JyKlO2I7YDKxGsEN0vU303etmJA10HYVb7FSWwLYIZ__hinmWy-TCNYRffyOFNBaFprfomLDTzqYTtkV-MwGr_Cdw4ybxaUCfSZ8bCyUAEZJsLsSXCz-JO8EeO4JJtnh3hanY8LiJvDApn75g1blE-rgnUKGSRtnslxEEFQqdyf27PuMV14rJFQSSVB0sQ4jYjUQQNG6uVQakR5uvcWzN_pP71z_UVSEabf3YkzVfO1QBzwDRUN9kv6YiUO8_qCzVbzd2P7QCwdZd6sqvRvgRPlBxE8sdzpR7QKZ15R7uTqruQJ70CJC8-D-sqHj59gOYAUnTOEOzKOile4-xvOrKNZV44BoMo6gAaWC8Bv_6y0]--></g></svg>